Coordinates
version=1
nRows=14
nColumns=38
inDegrees=no

Units are S.I. units (second, meters, Newtons, ...)
If the header above contains a line with 'inDegrees', this indicates whether rotational values are in degrees (yes) or radians (no).

endheader
time	pelvis_tilt	pelvis_list	pelvis_rotation	pelvis_tx	pelvis_ty	pelvis_tz	hip_flexion_r	hip_adduction_r	hip_rotation_r	knee_angle_r	ankle_angle_r	subtalar_angle_r	mtp_angle_r	hip_flexion_l	hip_adduction_l	hip_rotation_l	knee_angle_l	ankle_angle_l	subtalar_angle_l	mtp_angle_l	lumbar_extension	lumbar_bending	lumbar_rotation	arm_flex_r	arm_add_r	arm_rot_r	elbow_flex_r	pro_sup_r	wrist_flex_r	wrist_dev_r	arm_flex_l	arm_add_l	arm_rot_l	elbow_flex_l	pro_sup_l	wrist_flex_l	wrist_dev_l
0	1.04082	1.45118	0.416127	0.816487	-0.239693	0.973017	0.114138	0.0862688	-0.165353	0.272779	0.112598	0	0	-0.0262257	-0.102123	-0.180127	0	0.0363218	0	0	-0.158379	0.0999935	0.173645	-0.323701	-0.379947	0.063792	1.5628	1.36208	0	0	-0.354628	-0.260702	0.0159484	1.62955	1.35285	0	0
0.01	1.04508	1.45124	0.410432	0.816586	-0.239767	0.973012	0.11353	0.0866064	-0.164431	0.272611	0.112912	0	0	-0.0270336	-0.102321	-0.181306	0	0.0364718	0	0	-0.158861	0.0991846	0.174812	-0.318267	-0.377879	0.0589772	1.56637	1.36149	0	0	-0.349056	-0.262212	0.01766	1.63428	1.3506	0	0
0.02	1.03827	1.44945	0.412024	0.816437	-0.239104	0.972944	0.112963	0.0823241	-0.173132	0.269045	0.118731	0	0	-0.0336896	-0.102891	-0.184982	0	0.0365302	0	0	-0.156661	0.10055	0.176981	-0.311657	-0.376277	0.0541837	1.56972	1.35995	0	0	-0.34477	-0.262613	0.0194366	1.63804	1.34937	0	0
0.03	1.0425	1.44919	0.406812	0.816479	-0.239099	0.972955	0.112204	0.0829101	-0.172629	0.268315	0.118598	0	0	-0.0343608	-0.103301	-0.18578	0	0.0366969	0	0	-0.156849	0.100313	0.17699	-0.304443	-0.374013	0.0489729	1.57333	1.35822	0	0	-0.338557	-0.264278	0.0222429	1.64204	1.34598	0	0
0.04	1.04606	1.44892	0.402225	0.816536	-0.239095	0.972974	0.111572	0.0834805	-0.17218	0.267705	0.118371	0	0	-0.034924	-0.103701	-0.186703	0	0.036899	0	0	-0.156949	0.100023	0.176714	-0.296543	-0.371725	0.0438036	1.5769	1.35763	0	0	-0.332175	-0.266037	0.0249692	1.64654	1.34001	0	0
0.05	1.04751	1.44862	0.399614	0.816617	-0.239111	0.972977	0.111292	0.0839993	-0.171593	0.267246	0.118131	0	0	-0.0351503	-0.104053	-0.187677	0	0.0370568	0	0	-0.156813	0.0996262	0.176085	-0.288008	-0.369783	0.039338	1.57977	1.35804	0	0	-0.3254	-0.267796	0.0276429	1.65096	1.3318	0	0
0.06	1.06277	1.44995	0.387351	0.816932	-0.239856	0.973079	0.110102	0.0896695	-0.160063	0.26869	0.11134	0	0	-0.0296546	-0.104399	-0.185821	0	0.0372237	0	0	-0.159671	0.0974805	0.173681	-0.279151	-0.367031	0.0335248	1.58139	1.37272	0	0	-0.31662	-0.269625	0.0284886	1.65519	1.34035	0	0
0.07	1.06347	1.4497	0.385881	0.816961	-0.239903	0.973072	0.109806	0.0900131	-0.159378	0.267954	0.111173	0	0	-0.0297186	-0.10463	-0.186244	0	0.0373129	0	0	-0.159522	0.0971115	0.172426	-0.269465	-0.365816	0.0303025	1.58263	1.37529	0	0	-0.309444	-0.27076	0.0288738	1.65987	1.33719	0	0
0.08	1.06269	1.4495	0.386017	0.816943	-0.239939	0.973054	0.109845	0.0901866	-0.158974	0.267598	0.111035	0	0	-0.0295669	-0.104709	-0.186558	0	0.0373755	0	0	-0.159204	0.0967134	0.170973	-0.258929	-0.365111	0.0284116	1.58319	1.3764	0	0	-0.301773	-0.271584	0.0289592	1.66454	1.33459	0	0
0.09	1.06099	1.44911	0.386826	0.816947	-0.239973	0.973041	0.110164	0.0905414	-0.158539	0.267458	0.11073	0	0	-0.0292319	-0.104929	-0.187125	0	0.0373448	0	0	-0.158664	0.0964359	0.170077	-0.24789	-0.364785	0.0274169	1.5831	1.37668	0	0	-0.293694	-0.272483	0.0291421	1.66883	1.33268	0	0
0.1	1.05991	1.44858	0.386935	0.816985	-0.239983	0.973028	0.110348	0.0910719	-0.158078	0.267118	0.110249	0	0	-0.0289691	-0.10531	-0.187735	0	0.0372997	0	0	-0.158124	0.0963909	0.16957	-0.236642	-0.364753	0.0267832	1.58243	1.37694	0	0	-0.285281	-0.273136	0.029375	1.67277	1.33107	0	0
0.11	1.05597	1.44803	0.389767	0.816989	-0.239894	0.972986	0.11076	0.0914928	-0.157555	0.266667	0.109987	0	0	-0.0285654	-0.105577	-0.188785	0	0.0375884	0	0	-0.156631	0.0963564	0.168244	-0.224133	-0.365761	0.0291061	1.5807	1.36914	0	0	-0.277427	-0.273118	0.0279264	1.67582	1.3363	0	0
0.12	1.06169	1.44784	0.383348	0.816892	-0.2398	0.973011	0.109526	0.0919308	-0.157158	0.265551	0.109643	0	0	-0.0294146	-0.105838	-0.189678	0	0.0379844	0	0	-0.157819	0.0968017	0.171087	-0.21615	-0.366026	0.0244954	1.58208	1.37052	0	0	-0.265553	-0.274185	0.0314951	1.67794	1.33452	0	0
0.13	1.09387	1.44758	0.346913	0.816391	-0.239468	0.97336	0.103708	0.0874853	-0.166894	0.261389	0.114975	0	0	-0.0403255	-0.106426	-0.192571	0	0.0379997	0	0	-0.164766	0.0988993	0.172128	-0.202716	-0.368389	0.0236374	1.58447	1.37238	0	0	-0.257067	-0.273079	0.0299514	1.68349	1.3324	0	0
